HIERARCHY
ROOT Hips
{
	OFFSET -0.242314870503 -22.6634663824 2.41329003422
	CHANNELS 6 Xposition Yposition Zposition Zrotation Yrotation Xrotation
	JOINT LeftHip
	{
		OFFSET 6.58988745377 -8.98237523997 -0.79650377361
		CHANNELS 3 Zrotation Yrotation Xrotation
		JOINT LeftKnee
		{
			OFFSET 3.60529747958 -37.2526228519 -0.146293558333
			CHANNELS 3 Zrotation Yrotation Xrotation
			JOINT LeftFoot
			{
				OFFSET -1.40955064669 -39.2776322648 -4.16839495594
				CHANNELS 3 Zrotation Yrotation Xrotation
				End LeftToe
				{
                                  OFFSET 2.69547614604 -5.48487795955 11.8893774153
				}
			}
		}
	}
	JOINT RightHip
	{
		OFFSET -6.42034844887 -8.87357864365 -0.605201432519
		CHANNELS 3 Zrotation Yrotation Xrotation
		JOINT RightKnee
		{
			OFFSET -3.90775680015 -37.9781251566 -0.650456666336
			CHANNELS 3 Zrotation Yrotation Xrotation
			JOINT RightFoot
			{
				OFFSET 1.62675828455 -39.2980254609 -4.01840293152
				CHANNELS 3 Zrotation Yrotation Xrotation
				End RightToe
				{
                                        OFFSET -2.46308951604 -4.77899402765 12.301905438
				}
			}
		}
	}
	JOINT Waist
	{
		OFFSET -0.261332934496 10.8324278896 -2.50703753699
		CHANNELS 3 Zrotation Yrotation Xrotation
		JOINT Spine
		{
			OFFSET 0.641707815284 13.8983909745 0.408868467961
			CHANNELS 3 Zrotation Yrotation Xrotation
                        JOINT Chest
                        {
                            OFFSET 0.129456050917 5.40251554175 2.26048356027
                            CHANNELS 3 Zrotation Yrotation Xrotation
                            JOINT Neck
                            {
                                OFFSET -0.349791317082 21.2072832644 -3.84271327871
                                CHANNELS 3 Zrotation Yrotation Xrotation
                                End Head
                                {
                                        OFFSET 0.131283450216 26.8119899411 2.00311853184
                                }
                            }
                            JOINT LeftInnerShoulder
                            {
                                OFFSET 7.85592684822 12.0480889203 -3.11598495644
                                CHANNELS 3 Zrotation Yrotation Xrotation
                                JOINT LeftShoulder
                                {
                                        OFFSET 9.24164709358 2.93844315136 -0.876048360396
                                        CHANNELS 3 Zrotation Yrotation Xrotation
                                        JOINT LeftElbow
                                        {
                                                OFFSET 25.7743429389 -1.2750402503 -2.57008042329
                                                CHANNELS 3 Zrotation Yrotation Xrotation
                                                End LeftWrist
                                                {
                                                        OFFSET 24.7739132875 0.821875630441 -0.213383596728
                                                }
                                        }
                                }
                            }
                            JOINT RightInnerShoulder
                            {
                                OFFSET -8.21870681578 11.7167813586 -3.54369027671
                                CHANNELS 3 Zrotation Yrotation Xrotation
                                JOINT RightShoulder
                                {
                                        OFFSET -9.76895969294 3.21484107679 -0.85405059757
                                        CHANNELS 3 Zrotation Yrotation Xrotation
                                        JOINT RightElbow
                                        {
                                                OFFSET -25.1044201813 -1.32441371556 -1.99929150244
                                                CHANNELS 3 Zrotation Yrotation Xrotation
                                                End RightWrist
                                                {
                                                        OFFSET -25.3308208961 0.653028068294 -0.664514029639
                                                }
                                        }
                                }
                            }
                        }
                }
            }
}
MOTION
Frames: 8
Frame Time: 0.0333333333333
-153.20005 7.25641 -0.45584 101.29496 1.80839 14.40627 28.15780 15.27713 -23.44935 -14.43308 -9.28751 48.52155 -17.48695 19.13247 0.68187 -59.05505 -18.86864 -14.72727 8.97678 31.71911 58.97992 34.62884 -24.94405 16.32452 9.66496 3.58690 11.12385 13.80436 1.16166 -15.06427 9.45798 3.62001 3.86002 0.23731 -8.45743 -6.18036 38.59340 1.40732 -17.87350 33.77427 -16.91876 -46.19346 -1.23835 -3.16148 -32.51655 -25.57308 0.56730 -12.80767 -2.43387 10.68484 -18.00563 -15.05851 18.96995 -39.80121
-167.27104 13.73701 -0.46514 108.62045 2.66887 15.68879 31.99427 14.40961 -23.53085 -11.59970 -8.96872 47.88844 -17.09677 20.22798 -4.02468 -58.16401 -12.77141 -4.96940 5.19550 35.01697 47.00003 31.51871 -23.14966 19.16201 7.37145 5.24450 6.92091 14.92653 -1.80751 -13.84468 10.22022 1.94073 2.66317 1.01127 -8.04523 -2.68228 41.64981 -0.29325 -18.11898 33.72289 -17.77508 -43.33637 -1.04402 -7.26532 -25.04635 -28.40104 1.19920 -13.70399 -7.39939 15.89357 -18.78528 -14.11271 20.09098 -30.27271
-177.55780 22.33056 -0.47229 113.08071 -6.62797 12.72305 43.18963 20.82549 -10.80925 -14.62866 -12.70561 44.15888 -20.92469 17.15069 -10.37384 -67.54042 -24.08662 -14.72896 5.61623 31.21284 41.78274 36.93000 -20.25813 19.26961 9.29626 3.21608 12.05318 12.39802 0.83015 -8.97543 9.02740 4.47145 1.03150 -2.56358 -1.64801 -2.31510 40.07921 -5.63266 -19.94458 38.73736 -11.31651 -43.08376 -2.83865 -8.37051 -31.55730 -28.15192 9.98598 -12.70991 -16.97983 13.78443 -26.72270 -9.91039 21.46682 -34.92759
-189.69641 28.04952 -0.44359 120.66884 -5.34011 10.63568 45.49367 22.82836 -15.30112 -17.21778 -14.35744 51.45879 -20.73514 14.07878 -11.60970 -70.31945 -28.26636 -16.01533 10.24540 28.83674 51.96618 38.41815 -19.88129 14.78777 8.58260 3.06121 14.19010 10.63650 0.95517 -12.33057 7.70928 3.32431 1.50601 -0.27827 -0.16046 -3.29375 39.74627 -6.29214 -20.76415 40.35462 -16.37817 -46.51123 -1.91068 -11.00061 -32.97358 -28.72554 7.09662 -13.56193 -12.47235 15.06794 -22.44949 -13.54999 27.22162 -37.82117
-203.97953 32.84037 -0.38746 126.16507 -9.31312 7.87487 51.20271 24.80283 -11.02969 -16.42113 -15.86721 52.42079 -22.20215 14.86046 -11.67154 -68.34419 -33.00270 -22.96002 11.58026 24.41405 55.61647 36.96111 -16.38975 8.10995 8.90583 2.47207 17.73967 8.79722 2.44143 -12.13871 6.81013 4.28209 1.18456 -0.10356 3.05821 -1.70558 39.89676 -8.48361 -22.25271 39.65045 -18.38057 -45.68798 -1.69400 -12.26084 -28.50079 -30.19830 9.64625 -13.04795 -12.29953 13.73683 -23.49703 -14.56055 28.30300 -35.26053
-219.55178 34.76180 -0.38138 133.06149 -11.07143 4.95723 53.68247 25.32245 -9.11680 -17.89605 -16.66927 53.46608 -21.14369 11.64226 -12.41337 -71.14991 -35.06029 -17.41112 9.48280 22.07301 47.82404 38.43181 -17.11394 11.81378 8.57809 3.37639 18.35097 7.59777 2.29779 -9.29744 5.85044 4.75316 0.67891 -1.00383 2.91340 1.67632 40.34186 -10.81578 -22.76282 39.91750 -18.40350 -48.10924 -0.71695 -14.02114 -27.68952 -31.17197 10.63171 -11.79656 -13.74363 12.51266 -26.08147 -16.23978 32.21283 -30.63810
-233.36476 36.45148 -0.36052 139.44841 -14.11927 2.50254 57.20198 25.75500 -7.15801 -16.71219 -14.52398 54.86342 -22.85419 13.64280 -7.90615 -69.07537 -32.01512 -11.46763 6.19034 21.39031 36.57477 34.83379 -15.22659 13.80029 9.25466 4.42689 16.97667 6.45288 0.78206 -4.34016 5.82521 5.69150 -0.79805 -5.99400 4.56899 4.38475 39.69770 -15.72136 -22.90273 36.51023 -15.15265 -43.60801 1.48368 -14.98341 -18.28176 -33.39534 17.36199 -11.57901 -19.35522 11.41886 -34.06886 -13.30687 27.72689 -23.24072
-246.53570 40.87314 -0.32883 145.04575 -19.05043 2.63691 56.33200 26.11802 -10.15741 -21.07632 -17.50018 63.89040 -19.29137 12.29076 -12.12188 -66.54870 -39.41117 -20.21598 9.30362 16.07458 46.08381 34.21847 -12.15411 7.06090 9.96832 5.03963 20.92813 3.84529 3.37580 -9.65688 4.89805 7.74277 -0.59896 -8.99636 3.47950 3.21514 38.67766 -16.07841 -24.82956 37.31263 -19.39033 -43.58724 -0.17352 -13.00051 -15.36961 -33.89890 20.25188 -12.58020 -21.32941 13.48860 -36.95951 -11.62272 24.49204 -23.17160
